<svg xmlns="http://www.w3.org/2000/svg" width="211" height="62" viewBox="0 0 211 62" fill="none"><path d="M35.9621 20.1232L28.5202 39.9433L25.7507 49.0396L23.0075 40.0223L15.5339 20.1232H3.23999L20.5498 61.4962H30.9515L48.2613 20.1232H35.9621Z" fill="#002682"></path><path d="M112.189 48.9117V7.39648H100.244V49.7755C100.244 57.7182 105.735 61.974 112.992 61.974C117.035 61.974 120.497 61.342 120.497 61.342V51.2345C120.497 51.2345 118.447 51.4346 117.759 51.4767C114.868 51.6664 112.189 51.798 112.189 48.9064" fill="#002682"></path><path d="M68.9165 18.4321C57.0031 18.4321 47.3519 28.0498 47.3519 39.9113C47.3519 51.7728 57.0031 61.3905 68.9165 61.3905H90.4705V39.9113C90.4705 28.0498 80.8193 18.4321 68.9165 18.4321ZM79.8838 50.8405H68.9165C62.8647 50.8405 57.9387 45.9316 57.9387 39.9113C57.9387 33.891 62.8647 28.9821 68.9165 28.9821C74.9683 28.9821 79.8838 33.8805 79.8838 39.9113V50.8405Z" fill="#002682"></path><path d="M188.473 18.1362C176.56 18.1362 166.909 27.7539 166.909 39.6153C166.909 51.4768 176.56 61.0945 188.473 61.0945H210.027V39.6153C210.027 27.7539 200.376 18.1362 188.473 18.1362ZM199.446 50.5445H188.479C182.427 50.5445 177.501 45.6356 177.501 39.6153C177.501 33.5951 182.427 28.6861 188.479 28.6861C194.53 28.6861 199.446 33.5845 199.446 39.6153V50.5445Z" fill="#002682"></path><path d="M7.68441 6.41328H9.15376V11.3064C9.0322 11.3485 8.85778 11.3907 8.6305 11.4433C8.40323 11.496 8.13896 11.5434 7.84297 11.5961C7.54699 11.6488 7.21929 11.6909 6.86517 11.7225C6.51104 11.7594 6.15163 11.7752 5.78694 11.7752C5.04698 11.7752 4.37573 11.654 3.77319 11.4117C3.16536 11.1695 2.64739 10.8166 2.21399 10.3531C1.78058 9.88956 1.44231 9.32071 1.20447 8.64652C0.966622 7.97234 0.850342 7.19807 0.850342 6.31847C0.850342 5.43887 0.982479 4.66461 1.25204 3.98515C1.52159 3.3057 1.881 2.73685 2.33555 2.27335C2.7901 1.80984 3.32393 1.45695 3.93175 1.21466C4.54486 0.972377 5.19497 0.851234 5.89265 0.851234C6.36834 0.851234 6.79117 0.882836 7.15587 0.940774C7.52585 1.00398 7.83769 1.07245 8.10196 1.15146C8.36623 1.23046 8.57765 1.31474 8.74678 1.39374C8.91592 1.47275 9.02691 1.53596 9.08505 1.57282L8.61465 2.79479C8.32395 2.60517 7.93282 2.44716 7.44656 2.32075C6.9603 2.19434 6.46876 2.13114 5.96136 2.13114C5.42753 2.13114 4.93598 2.22594 4.49729 2.42083C4.0586 2.61044 3.68334 2.8896 3.37678 3.25302C3.07023 3.61645 2.8271 4.05362 2.65796 4.57506C2.48354 5.09124 2.39897 5.67589 2.39897 6.31847C2.39897 6.96106 2.47297 7.50883 2.62096 8.02501C2.76896 8.54118 2.99094 8.97835 3.28693 9.34705C3.58291 9.71574 3.95289 10.0002 4.39158 10.2003C4.83027 10.4005 5.34825 10.5005 5.9455 10.5005C6.36834 10.5005 6.73303 10.4795 7.02902 10.4321C7.325 10.3847 7.5417 10.3425 7.67384 10.3057V6.40801L7.68441 6.41328Z" fill="#002682"></path><path d="M16.5955 7.18125C16.7594 7.3814 16.9602 7.64476 17.2086 7.97658C17.4571 8.30314 17.7108 8.66657 17.975 9.0616C18.2393 9.4619 18.4983 9.87273 18.7573 10.3099C19.0163 10.7418 19.233 11.1579 19.418 11.5635H17.8112C17.6103 11.179 17.3884 10.7945 17.1505 10.3994C16.9127 10.0097 16.6748 9.63045 16.4317 9.27755C16.1886 8.91939 15.9507 8.58756 15.7129 8.27154C15.475 7.96078 15.2583 7.68689 15.068 7.45514C14.9359 7.46568 14.8038 7.47094 14.6664 7.47094H12.9327V11.5635H11.4634V1.25051C11.8756 1.15044 12.3408 1.08196 12.8482 1.04509C13.3608 1.00822 13.826 0.992424 14.2488 0.992424C15.7234 0.992424 16.8492 1.27158 17.6209 1.82462C18.3926 2.37767 18.7784 3.2046 18.7784 4.30015C18.7784 4.99541 18.5934 5.59059 18.2234 6.08043C17.8535 6.57554 17.3091 6.94423 16.5955 7.18125ZM14.3651 2.27233C13.7361 2.27233 13.2604 2.28813 12.9274 2.31973V6.25951H13.974C14.4814 6.25951 14.9359 6.23318 15.3376 6.18577C15.7393 6.13837 16.0829 6.03829 16.363 5.90135C16.6378 5.75914 16.8545 5.55899 17.0078 5.30617C17.1611 5.04808 17.2351 4.71099 17.2351 4.28435C17.2351 3.88932 17.1611 3.56276 17.0078 3.30468C16.8545 3.04132 16.6537 2.8359 16.3947 2.68316C16.1357 2.53041 15.8344 2.42507 15.4856 2.36713C15.1368 2.3092 14.7668 2.27759 14.3704 2.27759L14.3651 2.27233Z" fill="#002682"></path><path d="M24.8989 11.7856C24.2118 11.7856 23.6145 11.6803 23.1124 11.4696C22.605 11.2589 22.1927 10.9692 21.8703 10.6005C21.5479 10.2318 21.3048 9.79993 21.1515 9.29429C20.9929 8.78865 20.9189 8.24614 20.9189 7.6615V1.09344H22.3883V7.49822C22.3883 8.54637 22.6209 9.30483 23.086 9.77887C23.5511 10.2529 24.1589 10.4899 24.9042 10.4899C25.2794 10.4899 25.6177 10.432 25.9295 10.3161C26.2361 10.2002 26.5004 10.0212 26.7224 9.77887C26.9443 9.53658 27.1188 9.22582 27.235 8.85186C27.3566 8.47263 27.4147 8.02492 27.4147 7.49822V1.09344H28.8841V7.6615C28.8841 8.24614 28.8048 8.78865 28.6515 9.29429C28.493 9.79467 28.2498 10.2318 27.9221 10.6005C27.5945 10.9692 27.1769 11.2589 26.6801 11.4696C26.178 11.6803 25.586 11.7856 24.8989 11.7856Z" fill="#002682"></path><path d="M34.2018 0.987762C35.6765 0.987762 36.8128 1.26692 37.6057 1.82523C38.3985 2.38354 38.7949 3.21574 38.7949 4.3271C38.7949 4.93281 38.6839 5.44899 38.4672 5.87562C38.2505 6.30226 37.9386 6.64988 37.5264 6.9185C37.1194 7.18713 36.6173 7.37674 36.0359 7.49788C35.4492 7.61903 34.7885 7.67696 34.0486 7.67696H32.8805V11.5588H31.4111V1.24585C31.8234 1.14578 32.2885 1.0773 32.7959 1.04043C33.3086 1.00356 33.7737 0.987762 34.1966 0.987762M34.3234 2.27293C33.6944 2.27293 33.2188 2.28873 32.8858 2.32034V6.42867H33.9904C34.4978 6.42867 34.9524 6.39706 35.3541 6.32859C35.7558 6.26538 36.0993 6.15478 36.3794 5.99676C36.6596 5.83875 36.871 5.62807 37.0243 5.35418C37.1775 5.08029 37.2515 4.73266 37.2515 4.3113C37.2515 3.88993 37.1723 3.5739 37.019 3.31582C36.8604 3.05246 36.649 2.84704 36.3847 2.68903C36.1152 2.53102 35.8086 2.42568 35.4545 2.36247C35.1004 2.30453 34.7251 2.27293 34.334 2.27293H34.3234Z" fill="#002682"></path><path d="M40.2058 6.32353C40.2058 5.42813 40.3379 4.63807 40.6075 3.95334C40.8771 3.26862 41.2365 2.69978 41.6963 2.24154C42.1561 1.7833 42.69 1.44094 43.3031 1.20919C43.9162 0.97744 44.561 0.861565 45.2481 0.861565C45.9352 0.861565 46.5642 0.97744 47.1667 1.20919C47.7693 1.44094 48.2978 1.7833 48.7524 2.24154C49.2069 2.69978 49.5663 3.26862 49.8359 3.95334C50.1054 4.63807 50.2376 5.42813 50.2376 6.32353C50.2376 7.21894 50.1054 8.009 49.8359 8.69372C49.5663 9.37844 49.2069 9.94729 48.7524 10.4055C48.2978 10.8638 47.7693 11.2114 47.1667 11.4379C46.5642 11.6696 45.9247 11.7855 45.2481 11.7855C44.5716 11.7855 43.9109 11.6696 43.3031 11.4379C42.69 11.2061 42.1561 10.8638 41.6963 10.4055C41.2365 9.94729 40.8718 9.37844 40.6075 8.69372C40.3379 8.009 40.2058 7.21894 40.2058 6.32353ZM41.7492 6.32353C41.7492 6.95558 41.8284 7.53496 41.9923 8.05114C42.1561 8.56731 42.3834 9.00975 42.6794 9.37318C42.9754 9.73661 43.3401 10.0158 43.7682 10.2106C44.1963 10.4055 44.6773 10.5056 45.2164 10.5056C45.7555 10.5056 46.2312 10.4055 46.654 10.2106C47.0769 10.0158 47.4416 9.73661 47.7376 9.37318C48.0335 9.00975 48.2661 8.57258 48.4247 8.05114C48.5885 7.53496 48.6678 6.95558 48.6678 6.32353C48.6678 5.69148 48.5885 5.1121 48.4247 4.59593C48.2608 4.07975 48.0335 3.63732 47.7376 3.27389C47.4416 2.91046 47.0769 2.6313 46.654 2.43642C46.2312 2.24154 45.7502 2.14147 45.2164 2.14147C44.6826 2.14147 44.1963 2.24154 43.7682 2.43642C43.3401 2.6313 42.9754 2.91046 42.6794 3.27389C42.3834 3.63732 42.1508 4.07449 41.9923 4.59593C41.8284 5.1121 41.7492 5.69148 41.7492 6.32353Z" fill="#002682"></path><path d="M129.509 58.4782V48.5603C131.872 50.1193 136.417 51.6731 140.783 51.6731C146.148 51.6731 148.235 50.0351 148.235 47.9019C148.235 46.3428 147.147 45.4422 144.324 44.3782L139.504 42.5769C133.05 40.0329 129.504 36.6725 129.504 30.8523C129.504 23.7207 136.502 18.0638 148.41 18.0638C152.68 18.0638 156.956 19.0488 158.954 20.1127V30.1149C156.682 29.051 153.679 28.066 150.138 28.066C145.957 28.066 143.5 29.2143 143.5 31.1789C143.5 32.6537 144.319 33.4753 146.771 34.376L151.317 36.0983C158.5 38.8056 161.682 42.245 161.682 48.0652C161.682 55.3601 155.228 61.7543 142.68 61.7543C136.861 61.7543 132.046 60.2795 129.499 58.4782" fill="#002682"></path></svg>